<?xml version="1.0" encoding="utf-8"?>
<!-- Generator: Adobe Illustrator 18.1.0, SVG Export Plug-In . SVG Version: 6.00 Build 0)  -->
<!DOCTYPE svg PUBLIC "-//W3C//DTD SVG 1.1//EN" "http://www.w3.org/Graphics/SVG/1.1/DTD/svg11.dtd">
<svg version="1.1" id="bluebox_gradient" xmlns="http://www.w3.org/2000/svg" xmlns:xlink="http://www.w3.org/1999/xlink" x="0px"
	 y="0px" width="74px" height="46px" viewBox="0 0 74 46" enable-background="new 0 0 74 46" xml:space="preserve">
<g>
	<rect fill="#007EC2" width="74" height="46"/>
	<g>
		<path fill="#FFFFFF" d="M0,21.5h3.6l0.8-1.9h1.8L7,21.5h7V20l0.6,1.5h3.6l0.6-1.5v1.5h17.4l0-3.2h0.3c0.2,0,0.3,0,0.3,0.4v2.8h9
			v-0.7c0.7,0.4,1.9,0.7,3.3,0.7h3.8l0.8-1.9h1.8l0.8,1.9h7.3v-1.8l1.1,1.8h5.8V9.3h-5.8v1.4L64,9.3H58v1.4l-0.7-1.4h-8
			c-1.3,0-2.5,0.2-3.5,0.7V9.3h-5.5V10c-0.6-0.5-1.4-0.7-2.4-0.7H17.8l-1.4,3.1L15,9.3H8.7v1.4L8,9.3H2.5L0,15.1V21.5z M68.7,19.8
			h-2.9l-3.9-6.5l0,6.5h-4.2l-0.8-1.9h-4.3l-0.8,1.9h-2.4c-1,0-2.3-0.2-3-1c-0.7-0.7-1.1-1.7-1.1-3.3c0-1.3,0.2-2.5,1.1-3.4
			c0.7-0.7,1.7-1,3.2-1h2v1.9h-2c-0.8,0-1.2,0.1-1.6,0.5c-0.3,0.4-0.6,1.1-0.6,2c0,0.9,0.2,1.6,0.6,2c0.3,0.3,0.9,0.4,1.4,0.4h0.9
			l2.9-6.8h3.1l3.5,8.2v-8.2h3.2l3.7,6.1v-6.1h2.1V19.8z M44.1,19.8H42v-8.7h2.1V19.8z M40.8,13.4c0,1.4-0.9,2.1-1.5,2.3
			c0.5,0.2,0.8,0.5,1,0.7c0.3,0.4,0.4,0.8,0.4,1.6v1.7h-2.1l0-1.1c0-0.5,0.1-1.3-0.3-1.7c-0.3-0.3-0.8-0.4-1.5-0.4h-2.2v3.2h-2.1
			v-8.7h4.8c1.1,0,1.8,0,2.5,0.4C40.4,11.9,40.8,12.4,40.8,13.4z M31,19.8H24v-8.7H31v1.8h-4.9v1.6h4.7v1.8l-4.7,0V18H31V19.8z
			 M22.5,19.8h-2.1l0-6.8l-3,6.8h-1.8l-3-6.8v6.8H8.2l-0.8-1.9H3.1l-0.8,1.9H0.1l3.7-8.7h3.1l3.5,8.2v-8.2h3.4l2.7,5.9l2.5-5.9h3.5
			V19.8z M56.1,16l-1.4-3.5L53.2,16H56.1z M38,14.6c-0.3,0.2-0.6,0.2-1,0.2h-2.5v-1.9H37c0.4,0,0.7,0,1,0.2c0.3,0.1,0.4,0.4,0.4,0.8
			C38.5,14.2,38.3,14.5,38,14.6z M6.7,16l-1.4-3.5L3.9,16H6.7z"/>
		<path fill="#FFFFFF" d="M40.3,28.9c0,2.4-1.8,2.9-3.6,2.9h-2.6v2.9h-4l-2.6-2.9l-2.7,2.9h-8.2V26H25l2.6,2.8l2.6-2.8h6.6
			C38.5,26,40.3,26.5,40.3,28.9z M23.8,32.9h-5.1v-1.7h4.6v-1.8h-4.6v-1.6h5.2l2.3,2.5L23.8,32.9z M32,33.9l-3.2-3.5L32,27V33.9z
			 M36.8,30h-2.7v-2.2h2.7c0.8,0,1.3,0.3,1.3,1.1C38.1,29.7,37.6,30,36.8,30z M50.8,26h6.9v1.8h-4.9v1.6h4.7v1.8h-4.7v1.7l4.9,0v1.8
			h-6.9V26z M48.2,30.7c0.5,0.2,0.8,0.5,1,0.7c0.3,0.4,0.3,0.8,0.3,1.6v1.7h-2.1v-1.1c0-0.5,0-1.3-0.3-1.7c-0.3-0.3-0.8-0.4-1.5-0.4
			h-2.2v3.2h-2.1V26h4.8c1.1,0,1.8,0,2.5,0.4c0.7,0.4,1.1,0.9,1.1,1.9C49.7,29.8,48.7,30.5,48.2,30.7z M46.9,29.6
			c-0.3,0.2-0.6,0.2-1,0.2h-2.5v-2H46c0.4,0,0.7,0,1,0.2c0.3,0.1,0.4,0.4,0.4,0.8C47.4,29.1,47.2,29.4,46.9,29.6z M65.7,30.1
			c0.4,0.4,0.6,1,0.6,1.8c0,1.9-1.2,2.7-3.3,2.7H59v-1.9h4c0.4,0,0.7-0.1,0.8-0.2c0.1-0.1,0.2-0.3,0.2-0.6c0-0.3-0.1-0.5-0.3-0.6
			c-0.2-0.1-0.4-0.2-0.7-0.2c-1.9-0.1-4.4,0.1-4.4-2.7c0-1.3,0.8-2.6,3-2.6h4.2v1.9h-3.8c-0.4,0-0.6,0-0.8,0.2
			c-0.2,0.1-0.3,0.4-0.3,0.6c0,0.3,0.2,0.5,0.5,0.6c0.2,0.1,0.5,0.1,0.8,0.1l1.1,0C64.5,29.5,65.2,29.7,65.7,30.1z M74,33.6
			c-0.5,0.7-1.5,1.1-2.8,1.1h-4v-1.9h4c0.4,0,0.7-0.1,0.8-0.2c0.1-0.1,0.2-0.3,0.2-0.6c0-0.3-0.1-0.5-0.3-0.6
			c-0.2-0.1-0.4-0.2-0.7-0.2c-2-0.1-4.4,0.1-4.4-2.7c0-1.3,0.8-2.6,3-2.6H74v-1.7h-3.9c-1.2,0-2,0.3-2.6,0.7v-0.7h-5.7
			c-0.9,0-2,0.2-2.5,0.7l0-0.7H49.2V25c-0.8-0.6-2.2-0.7-2.8-0.7h-6.7V25c-0.6-0.6-2.1-0.7-2.9-0.7h-7.5l-1.7,1.9l-1.6-1.9H14.7
			v12.1h11l1.8-1.9l1.7,1.9l6.8,0v-2.9h0.7c0.9,0,2,0,2.9-0.4v3.3h5.6v-3.2h0.3c0.3,0,0.4,0,0.4,0.4v2.8h17c1.1,0,2.2-0.3,2.8-0.8
			v0.8h5.4c1.1,0,2.2-0.2,3.1-0.6V33.6z M74,27.9h-3.8c-0.4,0-0.6,0-0.8,0.2c-0.2,0.1-0.3,0.4-0.3,0.6c0,0.3,0.2,0.5,0.5,0.6
			c0.2,0.1,0.5,0.1,0.8,0.1l1.1,0c1.1,0,1.9,0.2,2.4,0.7c0.1,0.1,0.1,0.1,0.2,0.2V27.9z"/>
	</g>
</g>
</svg>
