<?xml version="1.0" encoding="utf-8"?>
<!-- Generator: Adobe Illustrator 18.1.0, SVG Export Plug-In . SVG Version: 6.00 Build 0)  -->
<!DOCTYPE svg PUBLIC "-//W3C//DTD SVG 1.1//EN" "http://www.w3.org/Graphics/SVG/1.1/DTD/svg11.dtd">
<svg version="1.1" id="Layer_1" xmlns="http://www.w3.org/2000/svg" xmlns:xlink="http://www.w3.org/1999/xlink" x="0px" y="0px"
	 width="74px" height="46px" viewBox="0 0 74 46" enable-background="new 0 0 74 46" xml:space="preserve">
<g>
	<g>
		<g>
			<g>
				<circle fill="#ED1C24" cx="24.9" cy="23" r="18"/>
				<g>
					<path fill="#FAA61A" d="M49.1,5C44.4,5,40.2,6.8,37,9.7c-0.7,0.6-1.3,1.2-1.8,1.9h3.6c0.5,0.6,1,1.2,1.4,1.9h-6.4
						c-0.4,0.6-0.7,1.2-1,1.9h8.5c0.3,0.6,0.5,1.3,0.8,1.9H32c-0.2,0.6-0.4,1.3-0.5,1.9h11c0.3,1.2,0.4,2.5,0.4,3.8
						c0,2-0.3,3.9-0.9,5.7H32c0.2,0.7,0.5,1.3,0.8,1.9h8.5c-0.3,0.7-0.7,1.3-1,1.9h-6.4c0.4,0.7,0.9,1.3,1.4,1.9h3.6
						c-0.6,0.7-1.2,1.3-1.8,1.9c3.2,2.9,7.4,4.7,12.1,4.7c9.9,0,18-8.1,18-18C67.1,13.1,59,5,49.1,5z"/>
				</g>
			</g>
		</g>
		<g>
			<g>
				<path d="M20.7,25c-0.2,0-0.3,0-0.4,0c-1.1,0-1.7,0.4-1.7,1.1c0,0.5,0.3,0.8,0.7,0.8C20.1,26.8,20.7,26.1,20.7,25z M22.1,28.3
					c-0.3,0-1.6,0-1.6,0l0-0.8c-0.5,0.6-1.2,0.9-2,0.9c-1.1,0-1.8-0.8-1.8-2c0-1.8,1.3-2.9,3.4-2.9c0.2,0,0.5,0,0.8,0.1
					c0.1-0.2,0.1-0.3,0.1-0.5c0-0.5-0.3-0.7-1.3-0.7c-1,0-1.7,0.2-2.1,0.3c0-0.1,0.3-1.7,0.3-1.7c1-0.3,1.6-0.4,2.3-0.4
					c1.7,0,2.6,0.8,2.6,2.2c0,0.4-0.1,0.9-0.2,1.5C22.5,25.4,22.2,27.7,22.1,28.3z"/>
				<polygon points="15.9,28.3 13.9,28.3 15.1,21.3 12.6,28.3 11.2,28.3 11.1,21.3 9.9,28.3 8.1,28.3 9.6,19.1 12.4,19.1 12.6,24.3 
					14.3,19.1 17.4,19.1 				"/>
				<path d="M51.5,25c-0.2,0-0.3,0-0.4,0c-1.1,0-1.7,0.4-1.7,1.1c0,0.5,0.3,0.8,0.7,0.8C50.9,26.8,51.5,26.1,51.5,25z M52.9,28.3
					c-0.3,0-1.6,0-1.6,0l0-0.8c-0.5,0.6-1.2,0.9-2,0.9c-1.1,0-1.8-0.8-1.8-2c0-1.8,1.3-2.9,3.4-2.9c0.2,0,0.5,0,0.8,0.1
					c0.1-0.2,0.1-0.3,0.1-0.5c0-0.5-0.3-0.7-1.3-0.7c-1,0-1.7,0.2-2.1,0.3c0-0.1,0.3-1.7,0.3-1.7c1-0.3,1.6-0.4,2.3-0.4
					c1.7,0,2.6,0.8,2.6,2.2c0,0.4-0.1,0.9-0.2,1.5C53.3,25.4,53,27.7,52.9,28.3z"/>
				<path d="M30.8,28.2c-0.5,0.2-1,0.2-1.4,0.2c-1,0-1.5-0.6-1.5-1.6c0-0.3,0.1-1.2,0.3-2c0.1-0.7,0.8-5.1,0.8-5.1h1.9l-0.2,1.1h1.2
					l-0.3,1.8h-1.2c-0.2,1.4-0.5,3.2-0.6,3.4c0,0.4,0.2,0.5,0.7,0.5c0.2,0,0.4,0,0.5-0.1L30.8,28.2z"/>
				<path d="M36.8,28.1c-0.7,0.2-1.3,0.3-2,0.3c-2.2,0-3.3-1.1-3.3-3.3c0-2.5,1.4-4.4,3.4-4.4c1.6,0,2.6,1,2.6,2.7
					c0,0.5-0.1,1.1-0.2,1.8h-3.9c-0.1,1.1,0.6,1.5,1.7,1.5c0.7,0,1.3-0.1,2-0.5L36.8,28.1z M35.7,23.7c0-0.2,0.2-1.3-0.9-1.3
					c-0.6,0-1.1,0.5-1.2,1.3H35.7z"/>
				<path d="M23.3,23.2c0,0.9,0.5,1.6,1.5,2.1c0.8,0.4,0.9,0.5,0.9,0.8c0,0.5-0.3,0.7-1.1,0.7c-0.6,0-1.1-0.1-1.8-0.3
					c0,0-0.3,1.6-0.3,1.7c0.4,0.1,0.8,0.2,2,0.2c2.1,0,3-0.8,3-2.5c0-1-0.4-1.6-1.4-2.1c-0.8-0.4-0.9-0.5-0.9-0.8
					c0-0.4,0.3-0.6,1-0.6c0.4,0,0.9,0,1.4,0.1l0.3-1.7c-0.5-0.1-1.3-0.1-1.7-0.1C24.1,20.7,23.3,21.8,23.3,23.2z"/>
				<path d="M46.3,20.9c0.5,0,1,0.1,1.7,0.5l0.3-2c-0.3-0.1-1.3-0.8-2.1-0.8c-1.3,0-2.4,0.6-3.2,1.7c-1.1-0.4-1.6,0.4-2.2,1.1
					l-0.5,0.1c0-0.2,0.1-0.5,0.1-0.7h-1.8c-0.2,2.3-0.7,4.6-1,6.9l-0.1,0.5h2c0.3-2.1,0.5-3.5,0.6-4.4l0.7-0.4
					c0.1-0.4,0.5-0.5,1.1-0.5c-0.1,0.5-0.1,1-0.1,1.5c0,2.4,1.3,3.9,3.4,3.9c0.5,0,1-0.1,1.7-0.3l0.3-2.1c-0.6,0.3-1.2,0.5-1.7,0.5
					c-1.1,0-1.8-0.8-1.8-2.2C43.8,22.3,44.8,20.9,46.3,20.9z"/>
				<path d="M62.8,19.1l-0.4,2.6c-0.5-0.7-1.1-1.2-1.9-1.2c-1,0-1.9,0.7-2.5,1.8c-0.8-0.2-1.7-0.5-1.7-0.5l0,0
					c0.1-0.6,0.1-1,0.1-1.1h-1.8c-0.2,2.3-0.7,4.6-1,6.9l-0.1,0.5h2c0.3-1.7,0.5-3.1,0.6-4.3c0.7-0.6,1-1.1,1.7-1.1
					c-0.3,0.7-0.5,1.6-0.5,2.4c0,1.9,0.9,3.1,2.4,3.1c0.7,0,1.3-0.2,1.8-0.8l-0.1,0.7h1.8l1.5-9.1H62.8z M60.4,26.6
					c-0.7,0-1-0.5-1-1.5c0-1.5,0.6-2.5,1.5-2.5c0.7,0,1,0.5,1,1.5C61.9,25.5,61.3,26.6,60.4,26.6z"/>
			</g>
			<g>
				<polygon fill="#FFFFFF" points="16.5,27.7 14.5,27.7 15.6,20.7 13.1,27.7 11.8,27.7 11.6,20.8 10.5,27.7 8.6,27.7 10.2,18.6 
					13,18.6 13,24.3 14.9,18.6 18,18.6 				"/>
				<path fill="#FFFFFF" d="M21.3,24.4c-0.2,0-0.3,0-0.4,0c-1.1,0-1.7,0.4-1.7,1.1c0,0.5,0.3,0.8,0.7,0.8
					C20.7,26.3,21.2,25.5,21.3,24.4z M22.7,27.7c-0.3,0-1.6,0-1.6,0l0-0.8c-0.5,0.6-1.2,0.9-2,0.9c-1.1,0-1.8-0.8-1.8-2
					c0-1.8,1.3-2.9,3.4-2.9c0.2,0,0.5,0,0.8,0.1c0.1-0.2,0.1-0.3,0.1-0.5c0-0.5-0.3-0.7-1.3-0.7c-1,0-1.7,0.2-2.1,0.3
					c0-0.1,0.3-1.7,0.3-1.7c1-0.3,1.6-0.4,2.3-0.4c1.7,0,2.6,0.8,2.6,2.2c0,0.4-0.1,0.9-0.2,1.5C23.1,24.9,22.7,27.2,22.7,27.7z"/>
				<path fill="#FFFFFF" d="M48.9,18.9l-0.3,2c-0.7-0.4-1.2-0.5-1.7-0.5c-1.5,0-2.5,1.4-2.5,3.4c0,1.4,0.7,2.2,1.8,2.2
					c0.5,0,1-0.1,1.7-0.5l-0.3,2.1c-0.7,0.2-1.2,0.3-1.7,0.3c-2.1,0-3.4-1.5-3.4-3.9c0-3.3,1.8-5.5,4.4-5.5
					C47.6,18.4,48.6,18.7,48.9,18.9z"/>
				<path fill="#FFFFFF" d="M52.1,24.4c-0.2,0-0.3,0-0.4,0c-1.1,0-1.7,0.4-1.7,1.1c0,0.5,0.3,0.8,0.7,0.8
					C51.5,26.3,52,25.5,52.1,24.4z M53.5,27.7c-0.3,0-1.6,0-1.6,0l0-0.8c-0.5,0.6-1.2,0.9-2,0.9c-1.1,0-1.8-0.8-1.8-2
					c0-1.8,1.3-2.9,3.4-2.9c0.2,0,0.5,0,0.8,0.1c0.1-0.2,0.1-0.3,0.1-0.5c0-0.5-0.3-0.7-1.3-0.7c-1,0-1.7,0.2-2.1,0.3
					c0-0.1,0.3-1.7,0.3-1.7c1-0.3,1.6-0.4,2.3-0.4c1.7,0,2.6,0.8,2.6,2.2c0,0.4-0.1,0.9-0.2,1.5C53.9,24.9,53.5,27.2,53.5,27.7z"/>
				<path fill="#FFFFFF" d="M31.4,27.6c-0.5,0.2-1,0.2-1.4,0.2c-1,0-1.5-0.6-1.5-1.6c0-0.3,0.1-1.2,0.3-2c0.1-0.7,0.8-5.1,0.8-5.1
					h1.9l-0.2,1.1h1L32,22.1h-1c-0.2,1.4-0.5,3.2-0.6,3.4c0,0.4,0.2,0.6,0.7,0.6c0.2,0,0.4,0,0.5-0.1L31.4,27.6z"/>
				<path fill="#FFFFFF" d="M37.3,27.6c-0.7,0.2-1.3,0.3-2,0.3c-2.2,0-3.3-1.1-3.3-3.3c0-2.5,1.4-4.4,3.4-4.4c1.6,0,2.6,1,2.6,2.7
					c0,0.5-0.1,1.1-0.2,1.8H34c-0.1,1.1,0.6,1.5,1.7,1.5c0.7,0,1.3-0.1,2-0.5L37.3,27.6z M36.2,23.2c0-0.2,0.2-1.3-0.9-1.3
					c-0.6,0-1.1,0.5-1.2,1.3H36.2z"/>
				<path fill="#FFFFFF" d="M23.9,22.7c0,0.9,0.5,1.6,1.5,2.1c0.8,0.4,0.9,0.5,0.9,0.8c0,0.5-0.3,0.7-1.1,0.7
					c-0.6,0-1.1-0.1-1.8-0.3c0,0-0.3,1.6-0.3,1.7c0.4,0.1,0.8,0.2,2,0.2c2.1,0,3-0.8,3-2.5c0-1-0.4-1.6-1.4-2.1
					c-0.8-0.4-0.9-0.5-0.9-0.8c0-0.4,0.3-0.6,1-0.6c0.4,0,0.9,0,1.4,0.1l0.3-1.7c-0.5-0.1-1.3-0.1-1.7-0.1
					C24.6,20.1,23.9,21.3,23.9,22.7z"/>
				<path fill="#FFFFFF" d="M63.8,27.7H62l0.1-0.7c-0.5,0.6-1.1,0.8-1.8,0.8c-1.4,0-2.4-1.2-2.4-3.1c0-2.5,1.5-4.6,3.2-4.6
					c0.8,0,1.3,0.3,1.9,1l0.4-2.6h1.9L63.8,27.7z M60.9,26c0.9,0,1.5-1,1.5-2.5c0-0.9-0.4-1.5-1-1.5c-0.9,0-1.5,1-1.5,2.5
					C59.9,25.5,60.3,26,60.9,26z"/>
				<path fill="#FFFFFF" d="M55.2,20.3c-0.2,2.3-0.7,4.6-1,6.9l-0.1,0.5h2c0.7-4.5,0.9-5.4,2-5.3c0.2-0.9,0.5-1.7,0.7-2.2
					c-0.8-0.2-1.3,0.3-1.9,1.2c0-0.4,0.1-0.7,0.1-1.1H55.2z"/>
				<path fill="#FFFFFF" d="M39.2,20.3c-0.2,2.3-0.7,4.6-1,6.9L38,27.7h2c0.7-4.5,0.9-5.4,2-5.3c0.2-0.9,0.5-1.7,0.7-2.2
					c-0.8-0.2-1.3,0.3-1.9,1.2c0-0.4,0.1-0.7,0.1-1.1H39.2z"/>
			</g>
		</g>
	</g>
</g>
</svg>
