<?xml version="1.0" encoding="utf-8"?>
<!-- Generator: Adobe Illustrator 18.1.0, SVG Export Plug-In . SVG Version: 6.00 Build 0)  -->
<!DOCTYPE svg PUBLIC "-//W3C//DTD SVG 1.1//EN" "http://www.w3.org/Graphics/SVG/1.1/DTD/svg11.dtd">
<svg version="1.1" id="Layer_1" xmlns="http://www.w3.org/2000/svg" xmlns:xlink="http://www.w3.org/1999/xlink" x="0px" y="0px"
	 width="74px" height="46px" viewBox="0 0 74 46" enable-background="new 0 0 74 46" xml:space="preserve">
<path fill="#009CDE" d="M48.2,15.1h-5c-0.3,0-0.6,0.2-0.7,0.6l-2,12.7c0,0.3,0.2,0.5,0.4,0.5h2.5c0.2,0,0.4-0.2,0.5-0.4l0.6-3.6
	c0.1-0.3,0.3-0.6,0.7-0.6h1.6c3.3,0,5.2-1.6,5.6-4.7c0.2-1.4,0-2.4-0.6-3.2C51.1,15.5,49.8,15.1,48.2,15.1 M48.7,19.7
	c-0.3,1.8-1.6,1.8-2.9,1.8H45l0.5-3.3c0-0.2,0.2-0.3,0.4-0.3h0.3c0.9,0,1.7,0,2.2,0.5C48.7,18.6,48.8,19.1,48.7,19.7"/>
<path fill="#003087" d="M12.8,15.1h-5c-0.3,0-0.6,0.2-0.7,0.6l-2,12.7c0,0.3,0.2,0.5,0.4,0.5h2.4c0.3,0,0.6-0.2,0.7-0.6l0.5-3.4
	c0.1-0.3,0.3-0.6,0.7-0.6h1.6c3.3,0,5.2-1.6,5.6-4.7c0.2-1.4,0-2.4-0.6-3.2C15.7,15.5,14.4,15.1,12.8,15.1 M13.3,19.7
	c-0.3,1.8-1.6,1.8-2.9,1.8H9.6l0.5-3.3c0-0.2,0.2-0.3,0.4-0.3h0.3c0.9,0,1.7,0,2.2,0.5C13.3,18.6,13.4,19.1,13.3,19.7"/>
<path fill="#003087" d="M27.6,19.7h-2.4c-0.2,0-0.4,0.1-0.4,0.3l-0.1,0.7l-0.2-0.2c-0.5-0.7-1.7-1-2.8-1c-2.6,0-4.9,2-5.3,4.8
	c-0.2,1.4,0.1,2.7,0.9,3.7c0.7,0.9,1.8,1.2,3,1.2c2.1,0,3.3-1.4,3.3-1.4l-0.1,0.7c0,0.3,0.2,0.5,0.4,0.5H26c0.3,0,0.6-0.2,0.7-0.6
	l1.3-8.1C28,19.9,27.8,19.7,27.6,19.7 M24.3,24.3c-0.2,1.4-1.3,2.3-2.7,2.3c-0.7,0-1.2-0.2-1.6-0.6c-0.4-0.4-0.5-1-0.4-1.7
	c0.2-1.3,1.3-2.3,2.7-2.3c0.7,0,1.2,0.2,1.6,0.6C24.2,23,24.4,23.6,24.3,24.3"/>
<path fill="#009CDE" d="M63,19.7h-2.4c-0.2,0-0.4,0.1-0.4,0.3l-0.1,0.7l-0.2-0.2c-0.5-0.7-1.7-1-2.8-1c-2.6,0-4.9,2-5.3,4.8
	c-0.2,1.4,0.1,2.7,0.9,3.7c0.7,0.9,1.8,1.2,3,1.2c2.1,0,3.3-1.4,3.3-1.4l-0.1,0.7c0,0.3,0.2,0.5,0.4,0.5h2.1c0.3,0,0.6-0.2,0.7-0.6
	l1.3-8.1C63.4,19.9,63.2,19.7,63,19.7 M59.7,24.3c-0.2,1.4-1.3,2.3-2.7,2.3c-0.7,0-1.2-0.2-1.6-0.6c-0.4-0.4-0.5-1-0.4-1.7
	c0.2-1.3,1.3-2.3,2.7-2.3c0.7,0,1.2,0.2,1.6,0.6C59.6,23,59.8,23.6,59.7,24.3"/>
<path fill="#003087" d="M40.2,19.7h-2.4c-0.2,0-0.4,0.1-0.6,0.3L34,24.8l-1.4-4.7c-0.1-0.3-0.4-0.5-0.7-0.5h-2.3
	c-0.3,0-0.5,0.3-0.4,0.5l2.6,7.7l-2.5,3.5c-0.2,0.3,0,0.7,0.3,0.7h2.4c0.2,0,0.4-0.1,0.6-0.3l7.9-11.5C40.8,20,40.6,19.7,40.2,19.7"
	/>
<path fill="#009CDE" d="M65.8,15.4l-2,13c0,0.3,0.2,0.5,0.4,0.5h2c0.3,0,0.6-0.2,0.7-0.6l2-12.7c0-0.3-0.2-0.5-0.4-0.5h-2.3
	C66,15.1,65.8,15.2,65.8,15.4"/>
</svg>
