<?xml version="1.0" encoding="utf-8"?>
<!-- Generator: Adobe Illustrator 18.1.0, SVG Export Plug-In . SVG Version: 6.00 Build 0)  -->
<!DOCTYPE svg PUBLIC "-//W3C//DTD SVG 1.1//EN" "http://www.w3.org/Graphics/SVG/1.1/DTD/svg11.dtd">
<svg version="1.1" id="VISA_Brand_Mark" xmlns="http://www.w3.org/2000/svg" xmlns:xlink="http://www.w3.org/1999/xlink" x="0px"
	 y="0px" width="74px" height="46px" viewBox="0 0 74 46" enable-background="new 0 0 74 46" xml:space="preserve">
<rect fill="#FFFFFF" width="74" height="46"/>
<g>
	<g>
		<g>
			<polyline fill="#0058A0" points="25.3,33.1 28.8,11.8 34.3,11.8 30.8,33.1 25.3,33.1 			"/>
			<path fill="#0058A0" d="M50.8,12.3c-1.1-0.4-2.8-0.9-4.9-0.9c-5.4,0-9.3,2.9-9.3,7c0,3.1,2.7,4.8,4.8,5.8c2.1,1,2.9,1.7,2.9,2.6
				c0,1.4-1.7,2.1-3.3,2.1c-2.2,0-3.4-0.3-5.2-1.1L35,27.5l-0.8,4.8c1.3,0.6,3.7,1.1,6.1,1.1c5.8,0,9.5-2.9,9.6-7.3
				c0-2.4-1.4-4.3-4.6-5.8c-1.9-1-3.1-1.6-3.1-2.6c0-0.9,1-1.8,3.2-1.8c1.8,0,3.1,0.4,4.1,0.8L50,17L50.8,12.3"/>
			<path fill="#0058A0" d="M64.9,11.8h-4.3c-1.3,0-2.3,0.4-2.9,1.8l-8.2,19.5h5.8c0,0,0.9-2.6,1.2-3.2c0.6,0,6.2,0,7,0
				c0.2,0.7,0.7,3.2,0.7,3.2h5.1L64.9,11.8 M58.1,25.6c0.5-1.2,2.2-6,2.2-6c0,0.1,0.5-1.2,0.7-2l0.4,1.8c0,0,1.1,5.1,1.3,6.1
				C61.8,25.6,59.2,25.6,58.1,25.6z"/>
			<path fill="#0058A0" d="M20.7,11.8l-5.4,14.5l-0.6-3c-1-3.4-4.1-7.1-7.6-8.9L12,33.1l5.8,0l8.7-21.3H20.7"/>
			<path fill="#FAA61A" d="M10.3,11.8H1.4l-0.1,0.4c6.9,1.8,11.5,6,13.4,11.1l-1.9-9.8C12.5,12.3,11.5,11.9,10.3,11.8z"/>
		</g>
	</g>
</g>
</svg>
